<?xml version="1.0" encoding="iso-8859-1"?>
<!-- Generator: Adobe Illustrator 19.0.0, SVG Export Plug-In . SVG Version: 6.00 Build 0)  -->
<svg version="1.1" id="Layer_1" xmlns="http://www.w3.org/2000/svg" xmlns:xlink="http://www.w3.org/1999/xlink" x="0px" y="0px"
	 viewBox="0 0 512 512" style="enable-background:new 0 0 512 512;" xml:space="preserve">
<path style="fill:#EAC71C;" d="M337.238,393.733c-23.807,14.072-51.58,22.148-81.238,22.148
	c-88.298,0-159.881-71.581-159.881-159.882C96.119,167.702,167.7,96.119,256,96.119c88.301,0,159.882,71.582,159.882,159.881
	c0,48.397-21.503,91.771-55.477,121.088"/>
<path style="fill:#EDE21B;" d="M351.66,127.883c-26.675-19.949-59.788-31.762-95.659-31.762l0,0H256
	c-9.572,0-18.943,0.849-28.051,2.461c-35.129,32.09-57.169,78.268-57.169,129.596c0,88.483,65.49,161.656,150.639,173.728
	c0.471-0.211,0.944-0.415,1.412-0.63c0.428-0.197,0.855-0.396,1.28-0.597c1.106-0.523,2.207-1.057,3.3-1.605
	c0.327-0.162,0.655-0.322,0.98-0.486c1.387-0.706,2.762-1.431,4.126-2.175c0.29-0.157,0.575-0.323,0.865-0.482
	c1.09-0.603,2.171-1.22,3.245-1.848c0.203-0.118,0.41-0.229,0.612-0.349l0.105-0.075c8.174-4.84,15.884-10.381,23.037-16.552
	l0.024-0.018c0.026-0.023,0.051-0.045,0.076-0.068c1.035-0.895,2.059-1.802,3.071-2.721c0.002-0.003,0.005-0.005,0.009-0.008
	c0.991-0.902,1.968-1.817,2.936-2.744c0.287-0.274,0.567-0.556,0.853-0.833c0.679-0.658,1.355-1.319,2.021-1.989
	c0.352-0.354,0.697-0.713,1.044-1.069c0.593-0.606,1.183-1.214,1.765-1.83c0.37-0.39,0.734-0.787,1.099-1.181
	c0.55-0.593,1.096-1.188,1.636-1.788c0.374-0.416,0.743-0.835,1.113-1.254c0.522-0.594,1.04-1.189,1.553-1.79
	c0.369-0.431,0.736-0.865,1.099-1.3c0.503-0.601,1.001-1.207,1.496-1.816c0.359-0.442,0.716-0.883,1.07-1.328
	c0.493-0.621,0.978-1.247,1.462-1.875c0.34-0.441,0.682-0.881,1.018-1.325c0.493-0.654,0.977-1.315,1.46-1.976
	c0.313-0.428,0.628-0.855,0.937-1.286c0.515-0.72,1.019-1.449,1.522-2.176c0.264-0.382,0.532-0.759,0.793-1.143
	c0.651-0.963,1.29-1.933,1.921-2.91c0.102-0.158,0.206-0.311,0.308-0.469c0.729-1.136,1.442-2.281,2.143-3.437
	c0.214-0.354,0.421-0.714,0.632-1.07c0.48-0.805,0.958-1.61,1.424-2.424c0.26-0.456,0.512-0.916,0.769-1.375
	c0.403-0.724,0.807-1.447,1.2-2.176c0.27-0.5,0.531-1.006,0.796-1.508c0.367-0.698,0.733-1.398,1.09-2.103
	c0.265-0.522,0.523-1.049,0.782-1.574c0.342-0.697,0.683-1.394,1.015-2.096c0.255-0.537,0.506-1.076,0.754-1.616
	c0.323-0.7,0.641-1.405,0.954-2.111c0.242-0.545,0.481-1.091,0.717-1.638c0.307-0.715,0.607-1.435,0.905-2.157
	c0.225-0.543,0.45-1.086,0.668-1.634c0.297-0.742,0.584-1.491,0.871-2.238c0.202-0.532,0.409-1.062,0.606-1.596
	c0.294-0.795,0.575-1.595,0.858-2.398c0.172-0.494,0.352-0.984,0.521-1.48c0.317-0.933,0.62-1.873,0.921-2.813
	c0.118-0.371,0.245-0.739,0.36-1.11c0.41-1.312,0.802-2.63,1.179-3.957c0.086-0.302,0.162-0.609,0.247-0.913
	c0.285-1.028,0.566-2.059,0.83-3.096c0.126-0.494,0.241-0.991,0.361-1.485c0.21-0.853,0.418-1.706,0.613-2.565
	c0.127-0.555,0.244-1.113,0.365-1.67c0.174-0.806,0.347-1.612,0.51-2.423c0.117-0.584,0.227-1.17,0.337-1.757
	c0.151-0.792,0.296-1.585,0.434-2.381c0.104-0.599,0.2-1.198,0.297-1.8c0.128-0.793,0.251-1.587,0.367-2.385
	c0.088-0.606,0.173-1.21,0.253-1.817c0.11-0.802,0.208-1.607,0.304-2.413c0.071-0.604,0.142-1.207,0.205-1.814
	c0.088-0.824,0.166-1.649,0.242-2.476c0.055-0.593,0.111-1.185,0.157-1.779c0.07-0.863,0.126-1.727,0.181-2.594
	c0.035-0.561,0.075-1.123,0.108-1.687c0.051-0.958,0.086-1.919,0.119-2.882c0.017-0.475,0.042-0.95,0.055-1.427
	c0.038-1.44,0.06-2.885,0.06-4.334c0-15.176-2.115-29.858-6.065-43.768C400.119,178.088,379.362,148.598,351.66,127.883z"/>
<path style="fill:#EF8229;" d="M356.132,188.487c13.019,19.272,20.623,42.505,20.623,67.513
	c0,66.691-54.063,120.754-120.753,120.754c-66.689,0-120.752-54.062-120.752-120.754c0-66.688,54.062-120.751,120.752-120.751
	c31.363,0,59.931,11.957,81.399,31.559"/>
<path style="fill:#F29F26;" d="M376.636,250.818c-0.116-2.753-0.326-5.479-0.622-8.18c-0.038-0.335-0.075-0.668-0.114-1.002
	c-0.321-2.698-0.729-5.368-1.224-8.009c-0.06-0.322-0.122-0.643-0.185-0.964c-0.516-2.637-1.118-5.243-1.804-7.816
	c-0.083-0.31-0.166-0.62-0.251-0.928c-0.706-2.569-1.495-5.102-2.363-7.598c-0.103-0.296-0.207-0.592-0.312-0.887
	c-0.888-2.491-1.855-4.945-2.9-7.356c-0.123-0.283-0.246-0.565-0.371-0.847c-1.063-2.405-2.203-4.768-3.415-7.087
	c-0.142-0.271-0.285-0.542-0.428-0.813c-1.229-2.307-2.53-4.568-3.9-6.783c-0.162-0.264-0.327-0.526-0.493-0.788
	c-5.808-9.226-12.827-17.612-20.839-24.932l-0.015-0.017c-0.028-0.026-0.058-0.051-0.086-0.076
	c-0.326-0.297-0.657-0.587-0.986-0.881c-0.37-0.329-0.738-0.66-1.111-0.985c-0.344-0.3-0.695-0.594-1.042-0.89
	c-0.368-0.312-0.734-0.625-1.104-0.933c-0.355-0.295-0.715-0.584-1.075-0.876c-0.37-0.299-0.738-0.599-1.109-0.895
	c-0.367-0.29-0.736-0.574-1.106-0.861c-0.373-0.289-0.746-0.578-1.124-0.862c-0.375-0.283-0.752-0.56-1.13-0.839
	c-0.378-0.279-0.756-0.556-1.138-0.829c-0.382-0.275-0.769-0.546-1.153-0.817c-0.385-0.27-0.771-0.538-1.16-0.803
	c-0.386-0.265-0.776-0.526-1.165-0.786c-0.394-0.264-0.791-0.524-1.19-0.783c-0.39-0.255-0.784-0.508-1.178-0.757
	c-0.402-0.255-0.806-0.506-1.211-0.756c-0.397-0.245-0.794-0.489-1.193-0.729c-0.412-0.248-0.826-0.492-1.24-0.734
	c-0.398-0.233-0.797-0.467-1.198-0.695c-0.423-0.241-0.849-0.477-1.275-0.712c-0.4-0.223-0.801-0.445-1.205-0.664
	c-0.434-0.233-0.871-0.461-1.307-0.689c-0.401-0.21-0.8-0.422-1.204-0.627c-0.454-0.231-0.911-0.454-1.367-0.679
	c-0.393-0.194-0.784-0.39-1.18-0.581c-0.489-0.234-0.983-0.46-1.475-0.689c-0.368-0.17-0.734-0.345-1.103-0.512
	c-0.621-0.28-1.246-0.55-1.872-0.819c-0.246-0.106-0.492-0.218-0.74-0.323c-0.867-0.367-1.739-0.722-2.616-1.069
	c-0.337-0.133-0.679-0.259-1.018-0.389c-0.554-0.213-1.106-0.427-1.664-0.632c-0.381-0.14-0.766-0.273-1.149-0.409
	c-0.518-0.185-1.037-0.371-1.557-0.549c-0.406-0.138-0.813-0.269-1.221-0.402c-0.506-0.166-1.01-0.333-1.519-0.493
	c-0.418-0.131-0.838-0.256-1.258-0.383c-0.501-0.152-1.004-0.303-1.507-0.449c-0.427-0.123-0.857-0.241-1.286-0.359
	c-0.502-0.139-1.005-0.276-1.51-0.409c-0.432-0.114-0.869-0.223-1.305-0.331c-0.506-0.126-1.011-0.251-1.518-0.37
	c-0.438-0.104-0.878-0.203-1.318-0.302c-0.511-0.114-1.021-0.226-1.534-0.333c-0.442-0.092-0.885-0.184-1.329-0.272
	c-0.514-0.102-1.029-0.201-1.547-0.296c-0.445-0.083-0.891-0.163-1.336-0.241c-0.523-0.091-1.048-0.176-1.573-0.26
	c-0.444-0.071-0.887-0.141-1.333-0.208c-0.534-0.08-1.069-0.153-1.605-0.225c-0.441-0.059-0.88-0.119-1.322-0.174
	c-0.546-0.068-1.094-0.128-1.641-0.187c-0.437-0.047-0.874-0.098-1.312-0.141c-0.56-0.055-1.123-0.102-1.684-0.15
	c-0.428-0.035-0.856-0.075-1.285-0.108c-0.592-0.044-1.185-0.077-1.777-0.112c-0.404-0.024-0.807-0.053-1.212-0.072
	c-0.659-0.032-1.323-0.054-1.988-0.075c-0.34-0.011-0.68-0.028-1.021-0.037c-1-0.025-2.002-0.038-3.009-0.039
	c-0.005,0-0.011,0-0.017,0h-0.001h-0.001c-0.005,0-0.011,0-0.017,0c-1.006,0-2.008,0.014-3.009,0.039
	c-0.341,0.009-0.681,0.025-1.022,0.037c-0.664,0.023-1.326,0.043-1.988,0.075c-0.404,0.02-0.808,0.048-1.211,0.072
	c-0.593,0.034-1.186,0.069-1.778,0.112c-0.43,0.032-0.857,0.071-1.286,0.108c-0.563,0.047-1.125,0.094-1.684,0.15
	c-0.439,0.043-0.876,0.094-1.313,0.141c-0.548,0.06-1.095,0.12-1.64,0.187c-0.442,0.055-0.881,0.114-1.322,0.174
	c-0.536,0.072-1.071,0.145-1.605,0.225c-0.445,0.066-0.89,0.137-1.334,0.208c-0.525,0.084-1.049,0.17-1.571,0.26
	c-0.446,0.077-0.892,0.158-1.336,0.241c-0.516,0.096-1.032,0.194-1.547,0.296c-0.444,0.088-0.887,0.179-1.329,0.272
	c-0.512,0.108-1.024,0.219-1.534,0.333c-0.44,0.099-0.88,0.199-1.319,0.302c-0.508,0.119-1.012,0.244-1.518,0.37
	c-0.436,0.109-0.871,0.218-1.305,0.331c-0.504,0.132-1.008,0.27-1.509,0.409c-0.43,0.118-0.861,0.237-1.288,0.359
	c-0.503,0.145-1.005,0.297-1.506,0.449c-0.421,0.127-0.841,0.252-1.26,0.383c-0.509,0.159-1.013,0.327-1.519,0.493
	c-0.407,0.133-0.815,0.265-1.221,0.402c-0.522,0.177-1.039,0.364-1.558,0.549c-0.383,0.136-0.768,0.269-1.149,0.409
	c-0.557,0.205-1.11,0.419-1.664,0.632c-0.34,0.13-0.681,0.256-1.018,0.389c-0.877,0.346-1.749,0.702-2.616,1.069
	c-0.248,0.104-0.493,0.216-0.74,0.323c-0.626,0.269-1.251,0.538-1.871,0.819c-0.37,0.167-0.736,0.341-1.104,0.512
	c-0.492,0.228-0.985,0.454-1.475,0.689c-0.397,0.19-0.788,0.387-1.183,0.582c-0.454,0.224-0.91,0.446-1.361,0.677
	c-0.404,0.205-0.806,0.418-1.207,0.629c-0.436,0.228-0.872,0.455-1.305,0.688c-0.404,0.218-0.805,0.441-1.206,0.664
	c-0.426,0.236-0.852,0.471-1.275,0.712c-0.401,0.229-0.799,0.463-1.198,0.695c-0.414,0.242-0.829,0.486-1.24,0.734
	c-0.4,0.24-0.797,0.484-1.193,0.729c-0.406,0.25-0.81,0.501-1.211,0.756c-0.395,0.25-0.786,0.502-1.179,0.757
	c-0.398,0.259-0.795,0.52-1.19,0.783c-0.389,0.26-0.778,0.522-1.165,0.786c-0.388,0.266-0.773,0.534-1.158,0.803
	c-0.386,0.271-0.771,0.542-1.154,0.817c-0.086,0.061-0.17,0.125-0.255,0.186c-9.37,21.475-14.579,45.183-14.579,70.111
	c0,62.54,32.72,117.43,81.969,148.507c1.082,0.028,2.163,0.068,3.253,0.068h0.001h0.001c55.227,0,101.796-37.076,116.171-87.695
	c1.356-4.775,2.426-9.671,3.19-14.668c0.304-1.999,0.56-4.014,0.767-6.043c0.413-4.059,0.624-8.179,0.624-12.347
	c0-1.39-0.031-2.773-0.079-4.152C376.664,251.504,376.651,251.161,376.636,250.818z"/>
<g>
	<path style="fill:#231F20;" d="M332.86,386.326c-23.188,13.706-49.765,20.951-76.86,20.951
		c-83.413,0-151.276-67.863-151.276-151.277c0-83.413,67.862-151.276,151.276-151.276S407.277,172.586,407.277,256
		c0,44.026-19.133,85.786-52.494,114.574c-3.598,3.105-3.998,8.539-0.893,12.136c3.104,3.599,8.538,4,12.136,0.893
		c37.152-32.06,58.461-78.569,58.461-127.603c0-92.903-75.583-168.486-168.487-168.486S87.514,163.097,87.514,256
		S163.097,424.487,256,424.487c30.174,0,59.778-8.073,85.617-23.345c4.092-2.418,5.448-7.695,3.029-11.786
		C342.227,385.264,336.95,383.908,332.86,386.326z"/>
	<path style="fill:#231F20;" d="M256.001,143.854c28.05,0,54.898,10.409,75.596,29.308c3.509,3.203,8.951,2.958,12.158-0.553
		c3.204-3.51,2.957-8.952-0.553-12.157c-23.878-21.802-54.846-33.809-87.201-33.809c-71.328,0-129.357,58.029-129.357,129.356
		c0,71.328,58.029,129.359,129.357,129.359S385.36,327.328,385.36,255.999c0-25.921-7.641-50.932-22.098-72.33
		c-2.661-3.939-8.008-4.973-11.947-2.313c-3.938,2.66-4.974,8.009-2.313,11.947c12.527,18.542,19.148,40.221,19.148,62.695
		c0,61.838-50.309,112.148-112.148,112.148c-61.838,0-112.147-50.309-112.147-112.148
		C143.854,194.162,194.163,143.854,256.001,143.854z"/>
	<path style="fill:#231F20;" d="M256,66.857c4.752,0,8.605-3.852,8.605-8.605V8.605C264.605,3.852,260.752,0,256,0
		c-4.752,0-8.605,3.852-8.605,8.605v49.647C247.395,63.005,251.248,66.857,256,66.857z"/>
	<path style="fill:#231F20;" d="M256,445.144c-4.752,0-8.605,3.853-8.605,8.605v49.646c0,4.752,3.853,8.605,8.605,8.605
		c4.752,0,8.605-3.853,8.605-8.605v-49.646C264.605,448.997,260.752,445.144,256,445.144z"/>
	<path style="fill:#231F20;" d="M149.675,89.047c1.594,2.761,4.486,4.304,7.461,4.304c1.46,0,2.94-0.372,4.295-1.154
		c4.115-2.376,5.525-7.639,3.149-11.754l-24.824-42.996c-2.377-4.116-7.639-5.524-11.754-3.149
		c-4.115,2.376-5.526,7.639-3.149,11.754L149.675,89.047z"/>
	<path style="fill:#231F20;" d="M362.327,422.952c-2.377-4.114-7.638-5.526-11.756-3.151c-4.115,2.377-5.527,7.64-3.151,11.756
		l24.823,42.997c1.595,2.76,4.486,4.304,7.462,4.304c1.459,0,2.939-0.372,4.294-1.153c4.115-2.377,5.527-7.639,3.151-11.756
		L362.327,422.952z"/>
	<path style="fill:#231F20;" d="M37.448,139.754l42.994,24.822c1.355,0.782,2.834,1.154,4.295,1.154
		c2.974,0,5.866-1.544,7.459-4.305c2.376-4.115,0.966-9.378-3.149-11.754l-42.994-24.822c-4.115-2.377-9.378-0.966-11.754,3.149
		C31.923,132.115,33.333,137.378,37.448,139.754z"/>
	<path style="fill:#231F20;" d="M474.554,372.244l-42.997-24.823c-4.115-2.373-9.378-0.966-11.756,3.15
		c-2.376,4.115-0.965,9.378,3.151,11.756l42.997,24.823c1.355,0.782,2.834,1.153,4.294,1.153c2.974,0,5.866-1.544,7.461-4.304
		C480.08,379.885,478.669,374.622,474.554,372.244z"/>
	<path style="fill:#231F20;" d="M66.857,256c0-4.753-3.852-8.605-8.605-8.605H8.605C3.853,247.395,0,251.247,0,256
		c0,4.752,3.853,8.605,8.605,8.605h49.647C63.004,264.605,66.857,260.752,66.857,256z"/>
	<path style="fill:#231F20;" d="M503.395,247.395h-49.646c-4.752,0-8.605,3.852-8.605,8.605c0,4.752,3.853,8.605,8.605,8.605h49.646
		c4.752,0,8.605-3.853,8.605-8.605C512,251.247,508.147,247.395,503.395,247.395z"/>
	<path style="fill:#231F20;" d="M80.442,347.422l-42.996,24.823c-4.115,2.376-5.526,7.639-3.149,11.755
		c1.594,2.76,4.486,4.304,7.459,4.304c1.46,0,2.94-0.372,4.295-1.154l42.996-24.823c4.115-2.376,5.526-7.639,3.149-11.755
		C89.821,346.456,84.557,345.047,80.442,347.422z"/>
	<path style="fill:#231F20;" d="M427.263,165.732c1.459,0,2.939-0.372,4.294-1.154l42.997-24.822
		c4.115-2.376,5.527-7.639,3.151-11.754c-2.376-4.114-7.637-5.527-11.756-3.149l-42.997,24.822
		c-4.115,2.376-5.527,7.639-3.151,11.754C421.396,164.189,424.288,165.732,427.263,165.732z"/>
	<path style="fill:#231F20;" d="M161.428,419.801c-4.116-2.374-9.378-0.966-11.754,3.151l-24.823,42.997
		c-2.376,4.115-0.966,9.38,3.149,11.756c1.355,0.782,2.834,1.153,4.295,1.153c2.974,0,5.866-1.544,7.461-4.304l24.823-42.997
		C166.954,427.441,165.544,422.178,161.428,419.801z"/>
	<path style="fill:#231F20;" d="M350.57,92.197c1.355,0.782,2.834,1.154,4.294,1.154c2.974,0,5.867-1.544,7.461-4.304l24.824-42.996
		c2.377-4.115,0.966-9.378-3.149-11.754c-4.115-2.377-9.378-0.966-11.755,3.149l-24.824,42.996
		C345.044,84.557,346.455,89.821,350.57,92.197z"/>
</g>
<g>
</g>
<g>
</g>
<g>
</g>
<g>
</g>
<g>
</g>
<g>
</g>
<g>
</g>
<g>
</g>
<g>
</g>
<g>
</g>
<g>
</g>
<g>
</g>
<g>
</g>
<g>
</g>
<g>
</g>
</svg>
